# xmcd
#
# Track frame offsets:
# 150
# 12522
# 28711
# 44956
# 54150
# 71315
# 88953
# 97117
# 106563
# 122334
# 135040
# 147189
# 163127
# 175650
# 192885
# 206121
# 218929
# 228189
# 242929
# 252932
# 271434
#
# Disc length: 3723 seconds
#
#
# Revision: 0
# Processed by: cddbd v1.5.2PL0 Copyright (c) Steve Scherf et al.
# Submitted via: FreeRIP 2.945 
#
DISCID=290e8915
DTITLE=Herriot-J1992 - Every-Living-Thing08
DYEAR=1992
DGENRE=Jungle
TTITLE0=ELT 0801
TTITLE1=ELT 0802
TTITLE2=ELT 0803
TTITLE3=ELT 0804
TTITLE4=ELT 0805
TTITLE5=ELT 0806
TTITLE6=ELT 0807
TTITLE7=ELT 0808
TTITLE8=ELT 0809
TTITLE9=ELT 0810
TTITLE10=ELT 0811
TTITLE11=ELT 0812
TTITLE12=ELT 0813
TTITLE13=ELT 0814
TTITLE14=ELT 0815
TTITLE15=ELT 0816
TTITLE16=ELT 0817
TTITLE17=ELT 0818
TTITLE18=ELT 0819
TTITLE19=ELT 0820
TTITLE20=ELT 0821
EXTD=Every Living Thing by James Herriot 10 CDs\nread by Christopher Timothy BBC Audiobooks\njungle country
EXTT0=
EXTT1=
EXTT2=
EXTT3=
EXTT4=
EXTT5=
EXTT6=
EXTT7=
EXTT8=
EXTT9=
EXTT10=
EXTT11=
EXTT12=
EXTT13=
EXTT14=
EXTT15=
EXTT16=
EXTT17=
EXTT18=
EXTT19=
EXTT20=
PLAYORDER=
